<?xml version="1.0" standalone="no"?>
<!DOCTYPE svg PUBLIC "-//W3C//DTD SVG 20010904//EN"
 "http://www.w3.org/TR/2001/REC-SVG-20010904/DTD/svg10.dtd">
<svg version="1.0" xmlns="http://www.w3.org/2000/svg"
 width="300.000000pt" height="150.000000pt" viewBox="0 0 300.000000 110.000000"
 preserveAspectRatio="xMidYMid meet">
<metadata>
Created by potrace 1.10, written by Peter Selinger 2001-2011
</metadata>
<g transform="translate(0.000000,195.000000) scale(0.100000,-0.100000)"
fill="#000000" stroke="none">
<path d="M1060 1025 l0 -185 25 0 25 0 0 107 c0 59 4 103 8 98 4 -6 19 -54 32
-107 22 -88 26 -98 47 -98 13 0 23 6 23 13 -1 6 -16 66 -34 132 l-33 120 23
47 c13 26 24 50 24 53 0 3 -13 5 -29 5 -25 0 -31 -6 -44 -42 l-15 -43 -1 43
c-1 38 -3 42 -26 42 l-25 0 0 -185z"/>
<path d="M1560 1025 l0 -185 26 0 25 0 -2 90 c-1 50 0 93 3 95 2 2 15 -38 28
-90 21 -86 26 -95 47 -95 12 0 23 5 23 11 0 7 -14 57 -31 112 -31 99 -31 100
-12 126 36 49 36 51 5 51 -20 0 -32 -7 -42 -25 -20 -38 -25 -30 -22 35 4 59 3
60 -22 60 l-26 0 0 -185z"/>
<path d="M1410 995 l0 -155 25 0 25 0 0 126 c0 96 3 125 13 121 9 -3 12 -37
12 -125 0 -120 0 -122 23 -122 22 0 22 2 22 126 0 136 -8 164 -45 164 -14 0
-25 5 -25 10 0 6 -11 10 -25 10 l-25 0 0 -155z"/>
<path d="M888 1133 c-17 -3 -39 -18 -53 -38 -18 -23 -39 -36 -72 -44 -62 -16
-45 -36 18 -22 78 18 93 15 112 -24 9 -19 23 -35 32 -35 12 0 11 8 -7 45 -19
39 -26 45 -52 45 l-30 0 20 20 c11 11 39 24 63 28 23 4 43 12 42 17 0 11 -32
15 -73 8z"/>
<path d="M1300 1132 c-44 -14 -50 -31 -50 -143 0 -104 1 -108 26 -128 15 -12
32 -21 39 -21 7 0 24 9 39 21 32 25 38 88 9 85 -11 0 -20 -12 -23 -26 -3 -14
-13 -26 -23 -28 -15 -3 -17 5 -17 57 l0 61 40 -5 40 -5 0 48 c0 66 -32 99 -80
84z m38 -65 c3 -12 -3 -17 -22 -17 -28 0 -29 1 -20 25 8 20 38 15 42 -8z"/>
<path d="M1969 1111 c-27 -28 -29 -34 -29 -111 0 -47 6 -95 14 -115 19 -45 57
-56 94 -28 26 19 27 24 30 131 3 109 2 110 -24 131 -36 28 -50 27 -85 -8z m59
-33 c14 -14 16 -156 3 -177 -5 -8 -16 -11 -25 -8 -13 5 -16 23 -16 95 0 101 8
120 38 90z"/>
<path d="M2110 990 l0 -150 25 0 24 0 3 118 c2 96 6 117 18 117 8 0 16 -9 18
-21 2 -16 8 -20 28 -16 48 9 16 82 -37 82 -16 0 -29 5 -29 10 0 6 -11 10 -25
10 l-25 0 0 -150z"/>
<path d="M2301 1123 c-18 -16 -22 -33 -28 -124 -6 -107 -6 -107 21 -134 18
-17 34 -25 47 -22 16 4 19 0 19 -24 0 -29 -22 -41 -35 -19 -8 13 -55 13 -55 0
0 -17 47 -60 65 -60 20 0 57 19 67 34 4 6 8 81 8 166 0 85 -4 160 -8 166 -9
15 -47 34 -65 34 -8 0 -24 -8 -36 -17z m59 -134 c0 -90 -2 -100 -17 -97 -15 3
-18 17 -21 87 -3 94 0 111 23 111 12 0 15 -17 15 -101z"/>
<path d="M1730 1008 c0 -68 4 -129 8 -136 9 -13 64 -32 94 -32 16 0 18 13 18
145 l0 145 -25 0 -25 0 0 -121 c0 -92 -3 -120 -12 -116 -10 3 -12 33 -9 120
l3 117 -26 0 -26 0 0 -122z"/>
<path d="M697 1067 c-13 -20 -14 -32 -6 -61 l10 -36 62 6 c82 8 99 -7 87 -81
-5 -27 -11 -58 -15 -67 -5 -12 -2 -18 7 -18 16 0 38 54 38 93 0 40 27 23 35
-21 10 -60 16 -72 31 -72 10 0 14 6 10 18 -3 9 -10 36 -16 59 -8 32 -22 51
-62 83 -50 40 -54 41 -105 34 -45 -5 -54 -4 -59 11 -4 10 -2 27 5 38 19 30 -2
43 -22 14z"/>
<path d="M600 1065 c-16 -19 -6 -45 19 -45 23 0 35 28 20 46 -15 18 -24 18
-39 -1z"/>
<path d="M635 1000 c-20 -38 -20 -90 0 -90 10 0 15 10 15 33 0 18 7 42 15 53
14 20 11 34 -6 34 -5 0 -15 -13 -24 -30z"/>
<path d="M667 963 c-13 -12 -7 -41 10 -47 9 -4 23 0 31 8 13 12 13 18 2 30
-13 17 -32 21 -43 9z"/>
<path d="M1875 868 c1 -15 9 -24 23 -26 18 -3 22 2 22 22 0 21 -5 26 -23 26
-18 0 -23 -5 -22 -22z"/>
</g>
</svg> 